<svg width="30" height="30" viewBox="0 0 30 30" fill="none" xmlns="http://www.w3.org/2000/svg">
<g clip-path="url(#clip0_2039_39)">
<path d="M25 14.9281C25 9.45252 20.5304 5 15 5C9.46959 5 5 9.45252 5 14.9281C5 16.4155 5.18324 17.373 5.41054 18.0731C5.56189 18.5391 5.92647 18.0804 6.10585 17.9121C7.33337 16.7604 9.25262 16.7877 10.4467 17.9742C12.2227 19.7387 13.8608 22.1862 11.5976 24.4362C10.3826 25.6442 8.55282 26.1466 7.16043 24.8456C5.36295 23.166 3.80107 21.2115 3.03274 18.8451C2.71125 17.855 2.5 16.6311 2.5 14.9281C2.5 8.05674 8.104 2.5 15 2.5C21.896 2.5 27.5 8.05674 27.5 14.9281C27.5 16.6311 27.2887 17.855 26.9672 18.8451C26.1989 21.2115 24.637 23.166 22.8396 24.8456C21.4471 26.1466 19.6174 25.6442 18.4024 24.4362C16.1392 22.1862 17.7773 19.7387 19.5532 17.9742C20.7474 16.7877 22.6666 16.7604 23.8941 17.9121C24.2406 18.2372 24.4108 18.6236 24.5895 18.0731C24.8167 17.373 25 16.4155 25 14.9281Z" fill="#EFF5E1"/>
</g>
<defs>
<clipPath id="clip0_2039_39">
<rect width="30" height="30" fill="white"/>
</clipPath>
</defs>
</svg>
